<?xml version="1.0" standalone="no"?>
<!DOCTYPE svg PUBLIC "-//W3C//DTD SVG 1.1//EN" "http://www.w3.org/Graphics/SVG/1.1/DTD/svg11.dtd" >
<!--
2013-9-30: Created.
-->
<svg>
<metadata>
Created by iconfont
</metadata>
<defs>

<font id="iconfont" horiz-adv-x="1024" >
  <font-face
    font-family="iconfont"
    font-weight="500"
    font-stretch="normal"
    units-per-em="1024"
    ascent="896"
    descent="-128"
  />
    <missing-glyph />
    
    <glyph glyph-name="xiayi" unicode="&#59029;" d="M512 896a512 512 0 1 0-512-512 512.950857 512.950857 0 0 0 512 512z m0-950.857143a438.857143 438.857143 0 1 1-438.857143 438.857143 438.857143 438.857143 0 0 1 438.857143-438.857143z m0 0L303.542857 357.156571l181.394286-186.88a66.998857 66.998857 0 0 1 52.662857 0l182.857143 185.490286a37.010286 37.010286 0 0 1 0 52.589714 35.620571 35.620571 0 0 1-25.6 10.898286 37.302857 37.302857 0 0 1-26.331429-10.898286L547.108571 288.109714V570.660571a33.792 33.792 0 0 1-10.24 24.429715A32.109714 32.109714 0 0 1 512 603.428571a32.182857 32.182857 0 0 1-35.84-32.914285v-284.745143L355.474286 409.453714a35.84 35.84 0 0 1-26.331429 10.971429 35.401143 35.401143 0 0 1-25.6-10.971429 37.010286 37.010286 0 0 1 0-52.589714z m0 0"  horiz-adv-x="1024" />

    
    <glyph glyph-name="shanchu" unicode="&#58981;" d="M799.2 21.6c0-34.4-28-62.4-62.4-62.4H287.2c-34.4 0-62.4 28-62.4 62.4V684h574.4v-662.4zM349.6 796c0 7.2 5.6 12.8 12.8 12.8h300c7.2 0 12.8-5.6 12.8-12.8v-37.6H349.6V796z m636.8-37.6H749.6V796c0 48-39.2 87.2-87.2 87.2h-300c-48 0-87.2-39.2-87.2-87.2v-37.6H37.6C16.8 758.4 0 741.6 0 720.8s16.8-37.6 37.6-37.6h112v-661.6c0-76 61.6-137.6 137.6-137.6h449.6c76 0 137.6 61.6 137.6 137.6V684h112c20.8 0 37.6 16.8 37.6 37.6s-16.8 36.8-37.6 36.8zM512 72c20.8 0 37.6 16.8 37.6 37.6v400c0 20.8-16.8 37.6-37.6 37.6s-37.6-16.8-37.6-37.6v-400c0-20.8 16.8-37.6 37.6-37.6m-175.2 0c20.8 0 37.6 16.8 37.6 37.6v400c0 20.8-16.8 37.6-37.6 37.6s-37.6-16.8-37.6-37.6v-400c0.8-20.8 17.6-37.6 37.6-37.6m350.4 0c20.8 0 37.6 16.8 37.6 37.6v400c0 20.8-16.8 37.6-37.6 37.6s-37.6-16.8-37.6-37.6v-400c0-20.8 16.8-37.6 37.6-37.6"  horiz-adv-x="1024" />

    
    <glyph glyph-name="qingkong" unicode="&#58909;" d="M211.61984 323.5328h649.5232c21.4528 0 31.66208 15.36 22.46656 34.2016l-76.5952 157.60384c-9.18528 18.8416-34.2016 34.2016-55.6544 34.2016H617.0624V780.00128c0 20.80768-17.3568 37.66272-39.3216 37.66272h-77.6192c-21.44256 0-39.3216-16.85504-39.3216-37.66272v-230.9632H321.92512c-21.44256 0-46.46912-15.36-55.6544-34.2016l-76.5952-157.5936c-9.70752-18.33984 0.512-33.71008 21.95456-33.71008z m632.1664-56.0128H244.29568c3.072-58.4704 2.048-128.3584-47.99488-169.984-69.95968-57.98912-46.46912-121.92768 3.072-147.2h101.61152c10.20928 13.38368 65.36192 88.71936 81.18272 165.03808 2.56 15.86176 4.096 26.2656 4.096 26.2656-0.512-8.9088-2.048-17.34656-4.096-26.2656-7.65952-48.56832-25.01632-148.6848-37.7856-165.03808h73.53344c10.20928 13.38368 65.36192 88.71936 81.19296 165.03808 2.56 15.86176 4.08576 26.2656 4.08576 26.2656-0.512-8.9088-2.048-17.34656-4.096-26.2656-7.64928-48.56832-25.01632-148.6848-37.7856-165.03808h92.93824c10.21952 13.38368 65.36192 88.71936 81.2032 165.03808 2.54976 15.86176 4.07552 26.2656 4.07552 26.2656-0.512-8.9088-2.048-17.34656-4.08576-26.2656-7.65952-48.56832-25.01632-148.6848-37.7856-165.03808h92.93824c10.20928 13.38368 65.36192 88.71936 81.19296 165.03808 2.54976 15.86176 4.08576 26.2656 4.08576 26.2656-0.512-8.9088-2.048-17.34656-4.096-26.2656-7.64928-48.56832-25.01632-148.6848-37.7856-165.03808h93.96224s61.78816 21.30944 52.08064 90.69568c-12.24704 98.12992-17.8688 153.14944-36.2496 226.49856z"  horiz-adv-x="1024" />

    
    <glyph glyph-name="moban" unicode="&#58997;" d="M108.120918 529.540116h603.267107v-610.758365H108.120918zM806.408666 621.265771H228.685306v-62.050101h512.014595v-548.708264h65.708765zM915.876649 729.517443h-577.723361v-62.050102h512.014596v-548.708263h65.708765z"  horiz-adv-x="1024" />

    
    <glyph glyph-name="xiugai" unicode="&#58933;" d="M98.871843 163.175978c-8.639287 8.639287-23.358073 6.399472-27.837703 2.239815l-4.159657-4.159657c-6.399472-6.399472-8.639287-12.798944-10.559129-19.198416L0.639947-90.883062a31.293418 31.293418 0 0 1 36.476991-36.476991l232.940782 55.675407c8.639287 2.239815 15.038759 6.399472 19.198416 10.559129l4.159657 4.159657c4.159657 4.159657 6.399472 19.198416-2.239815 27.837703L98.871843 163.175978zM998.317639 769.845928L897.845928 870.317639a85.176973 85.176973 0 0 1-121.909943 0l-49.275934-53.435592c-8.639287-8.639287-8.639287-21.438231 0-29.757545l188.144478-188.144478c8.639287-8.639287 21.438231-8.639287 29.757545 0l53.435591 53.435592c34.557149 31.99736 34.557149 83.193137 0.319974 117.430312zM664.905145 729.20928a20.318324 20.318324 0 0 1-29.757545 0L158.706907 252.768587c-8.639287-8.639287-8.639287-21.438231 0-27.837704l190.064319-190.064319c8.639287-8.639287 21.438231-8.639287 29.757545 0l474.200879 476.440693c8.639287 8.639287 8.639287 21.438231 0 29.757545l-187.824505 188.144478z"  horiz-adv-x="1024" />

    
    <glyph glyph-name="Uploadiconkaobei2" unicode="&#59028;" d="M1364.604565 432.97019a57.10332 57.10332 0 0 0-32.13341 60.173391 331.942896 331.942896 0 0 1-32.645088 197.849019 363.564627 363.564627 0 0 1-628.716423 44.584253 60.650958 60.650958 0 0 0-84.017609-13.917656 257.783626 257.783626 0 0 1-221.454453 32.6792 243.081397 243.081397 0 0 1-113.797297-74.500389 226.468902 226.468902 0 0 1-61.981322-189.150483 67.678009 67.678009 0 0 0-36.704404-66.313533A292.816547 292.816547 0 0 1 0.503808 149.807311c9.68778-158.722669 153.947003-277.807311 316.21731-277.807311h262.934523c50.383276 0 103.188497 18.966216 103.188496 68.223799v102.335699c0 22.104511-45.709946 34.1119-68.223799 34.1119l-73.545256 0.511679a30.291367 30.291367 0 0 0-22.582077 49.530478L750.965601 417.892731a47.75666 47.75666 0 0 0 68.2238 0l231.517463-291.07684a30.257255 30.257255 0 0 0-22.547966-49.530479L955.636999 76.773734c-22.547966 0-68.223799-12.007389-68.223799-34.1119v-102.335699c0-49.359919 56.864537-68.223799 107.281924-68.223799h227.424036a307.996342 307.996342 0 0 1 309.22437 247.208937 292.816547 292.816547 0 0 1-166.738965 313.829477z"  horiz-adv-x="1536" />

    
    <glyph glyph-name="xingzhuang1142" unicode="&#59085;" d="M516.232699 850.633254A161.496429 161.496429 0 0 1 401.61997 895.980983H159.59475A157.912496 157.912496 0 0 1 0 739.823883v-633.039672a157.912496 157.912496 0 0 1 159.59475-156.1571h234.052797a219.424496 219.424496 0 0 0 165.153504-73.141499L563.189541-128V738.726761A154.621128 154.621128 0 0 1 516.232699 850.633254z m607.659572-0.804557a160.911297 160.911297 0 0 1-97.278194 45.34773V310.848993l-97.278193 153.597147h-64.583944L767.473747 310.848993V895.980983a157.912496 157.912496 0 0 1-158.424486-156.1571v-866.799902l4.827338 5.485612a219.790204 219.790204 0 0 0 163.032401 72.117518h234.052796A157.912496 157.912496 0 0 1 1170.263981 106.784211V738.726761a154.255421 154.255421 0 0 1-46.37171 111.101936z"  horiz-adv-x="1170" />

    
    <glyph glyph-name="xingzhuang1143" unicode="&#59088;" d="M919.442286-128h-658.285715V896h313.490286v-576l94.061714 128H731.392l94.061714-128V896h93.988572A31.670857 31.670857 0 0 0 950.820571 863.963429v-959.926858a31.670857 31.670857 0 0 0-31.378285-32.036571zM73.106286-95.963429V863.963429A31.670857 31.670857 0 0 0 104.484571 896h93.988572v-1024H104.484571A31.670857 31.670857 0 0 0 73.106286-95.963429z"  horiz-adv-x="1024" />

    
    <glyph glyph-name="xiangqing1" unicode="&#58916;" d="M489.658182 407.552L58.647273 838.562909 116.084364 896l488.541091-488.448-488.541091-488.541091-57.437091 57.530182 431.010909 431.010909z m372.363636 0L431.010909 838.562909 488.448 896l488.541091-488.448-488.541091-488.541091-57.437091 57.530182 431.010909 431.010909z"  horiz-adv-x="1024" />

    
    <glyph glyph-name="kong" unicode="&#59107;" d="M456 31.2v1.6-1.6z m57.6 58.4c-32 0-57.6-24.8-57.6-56.8v-0.8c0-6.4 4.8-11.2 11.2-11.2s11.2 4.8 11.2 11.2v0.8c0 18.4 15.2 34.4 34.4 34.4s34.4-16 34.4-34.4v-0.8c0-6.4 4.8-11.2 11.2-11.2 6.4 0 11.2 4.8 11.2 11.2v0.8c1.6 30.4-24.8 56.8-56 56.8zM380 178.4c-16 3.2-39.2 3.2-44.8-13.6-3.2-10.4 13.6-11.2 28.8-15.2 12-3.2 18.4-9.6 17.6-11.2-3.2-4-21.6 3.2-37.6-2.4s-12.8-20-3.2-24c9.6-3.2 24.8 0.8 60-4.8 17.6-3.2 28.8 3.2 31.2 13.6 3.2 24.8-29.6 52.8-52 57.6zM593.6 120c2.4-10.4 12-16.8 31.2-13.6 35.2 5.6 50.4 1.6 60 4.8 9.6 3.2 12 18.4-3.2 24-16 5.6-33.6-1.6-37.6 2.4-2.4 3.2 4.8 9.6 17.6 12 15.2 3.2 32 4.8 28.8 15.2-4.8 16.8-28 17.6-44.8 13.6-23.2-4.8-56-32.8-52-58.4zM71.2-128C32-128 0-96 0-56.8V393.6c0 7.2 3.2 13.6 8 18.4l201.6 184c4.8 4 10.4 6.4 16.8 6.4h572.8c7.2 0 12.8-2.4 16.8-5.6l200-184c4.8-4.8 8.8-12 8.8-18.4V-56c0-39.2-32-71.2-71.2-71.2H71.2z m-40 71.2c0-21.6 18.4-39.2 40.8-39.2h882.4c21.6 0 39.2 16.8 39.2 39.2V386.4H676.8l-1.6-9.6c-5.6-34.4-22.4-66.4-48.8-92.8-31.2-28.8-70.4-44.8-112-44.8-41.6 0-81.6 16-112 44.8-26.4 24-43.2 56.8-48.8 92.8l-1.6 9.6H31.2v-443.2zM54.4 412h310.4c6.4 0 12-6.4 12-12.8 0-73.6 63.2-136 137.6-136S652 325.6 652 399.2c0 7.2 5.6 12.8 12 12.8h307.2L797.6 572h-568L54.4 412z m130.4 378.4c-28.8 0-52.8 24-52.8 52.8C132 872 156 896 184.8 896c28.8 0 52.8-24 52.8-52.8 0-28.8-24-52.8-52.8-52.8z m0 89.6c-20 0-36.8-16.8-36.8-36.8 0-20 16.8-36.8 36.8-36.8 20 0 36.8 16.8 36.8 36.8 0 20-16.8 36.8-36.8 36.8z m553.6-207.2c-19.2 0-35.2 16-35.2 35.2s16 35.2 35.2 35.2c19.2 0 35.2-16 35.2-35.2s-16-35.2-35.2-35.2z m0 53.6c-10.4 0-19.2-8.8-19.2-19.2S728 688 738.4 688s19.2 8.8 19.2 19.2-8.8 19.2-19.2 19.2zM364 716.8c-4.8 0-8 3.2-8 8v36c0 4.8 3.2 8 8 8s8-3.2 8-8v-36c0-4.8-4-8-8-8zM381.6 735.2h-36c-4.8 0-8 3.2-8 8s3.2 8 8 8h36c4.8 0 8-3.2 8-8s-3.2-8-8-8zM72 594.4c-4.8 0-8 3.2-8 8v70.4c0 4.8 3.2 8 8 8s8-3.2 8-8v-70.4c0-4.8-3.2-8-8-8zM107.2 629.6H36.8c-4.8 0-8 3.2-8 8s3.2 8 8 8h70.4c4.8 0 8-3.2 8-8s-3.2-8-8-8zM944 588c-4.8 0-8 3.2-8 8v51.2c0 4.8 3.2 8 8 8s8-3.2 8-8V596c0-4.8-3.2-8-8-8zM969.6 613.6h-51.2c-4.8 0-8 3.2-8 8s3.2 8 8 8h51.2c4.8 0 8-3.2 8-8s-3.2-8-8-8zM856 726.4c-4.8 0-8 3.2-8 8V815.2c0 4.8 3.2 8 8 8s8-3.2 8-8v-80.8c0-4.8-3.2-8-8-8zM896 766.4h-80c-4.8 0-8 3.2-8 8s3.2 8 8 8h80c4.8 0 8-3.2 8-8s-3.2-8-8-8z"  horiz-adv-x="1024" />

    
    <glyph glyph-name="fenpei" unicode="&#59076;" d="M837.2 231.7c-17.6 17.6-46.2 17.6-63.8 0-17.6-17.6-17.6-46.2 0-63.8l34.3-34.3H774c-131.2 0.2-237.5 106.7-237.3 238C536.4 551.9 390.3 698 210 698.2h-99.8c-24.7 0-44.7-20-44.7-44.7s20-44.7 44.7-44.7H210c131-0.2 237.2-106.3 237.3-237.3 0.3-180.3 146.4-326.4 326.7-326.7h31.9l-31.9-31c-17.5-17.5-17.5-45.7 0-63.2 8.5-8.5 20-13.2 31.9-13.1 12-0.2 23.5 4.6 31.9 13.1l109 109c17.6 17.4 17.8 45.8 0.4 63.4l-0.4 0.4-109.6 108.3zM439 191.3c-20.4 13.8-48.2 8.5-62.1-11.9-44.1-65.5-117.9-104.7-196.8-104.7h-69.9c-24.7 0-44.7-20-44.7-44.7 0-24.7 20-44.7 44.7-44.7h69.9c108.7-0.3 210.5 53.5 271.3 143.6 13.8 20.4 8.5 48.2-11.9 62.1-0.2 0.1-0.3 0.2-0.5 0.3zM110.2 324.9h244.2c24.7 0 44.7 20 44.7 44.7 0 24.7-20 44.7-44.7 44.7H110.2c-24.7 0-44.7-20-44.7-44.7 0-24.7 20-44.7 44.7-44.7zM549 524.1c7.5-5.1 16.3-7.8 25.4-7.8 14.7-0.1 28.5 7.2 36.9 19.3 44.3 64.5 117.5 103 195.7 103.1h5.4L774 600.4c-17.5-17.4-17.5-45.7 0-63.2 8.5-8.5 20-13.2 31.9-13.1 12-0.2 23.5 4.6 31.9 13.1l109 108.8c17.6 17.4 17.8 45.8 0.4 63.4l-0.4 0.4L837.2 818.3c-17.6 17.6-46.2 17.6-63.8 0s-17.6-46.2 0-63.8l27.3-27.1c-105.7-1.9-203.9-54.6-263.8-141.7-13.4-20.5-8-47.8 12.1-61.6z"  horiz-adv-x="1024" />

    
    <glyph glyph-name="wulumuqikuajingdianshanghoutai_bufenyemiancc-" unicode="&#58922;" d="M0 896v-1024h1024V896H0z m768-633.536l-162.688-162.688L512 128l128 128H256V320h512v-57.536zM768 384H256v57.536l162.688 162.688L512 576 384 448h384v-64z m0 320h-64V768h64v-64z m128 0h-64V768h64v-64z"  horiz-adv-x="1024" />

    
    <glyph glyph-name="jianhao" unicode="&#58948;" d="M511.772444 896C229.774222 896 0 666.225778 0 384.227556c0-281.998222 229.774222-511.715556 511.772444-511.715556 281.998222 0 511.715556 229.717333 511.715556 511.715556C1024.056889 666.225778 794.225778 896 511.772444 896z m214.072889-577.024H298.723556a65.308444 65.308444 0 0 0 0 130.56h427.121777a65.308444 65.308444 0 0 0 0-130.56z"  horiz-adv-x="1024" />

    
    <glyph glyph-name="xinzeng" unicode="&#58883;" d="M512.09-63.26c-247.18 0-447.52 200.38-447.52 447.52 0 247.18 200.35 447.52 447.52 447.52 247.14 0 447.55-200.35 447.55-447.52 0-247.18-200.41-447.52-447.55-447.52zM735.88 429H556.86V608.02h-89.49V429H288.32v-89.49h179.01V160.5h89.49V339.51h179.01V429h0.05z m0 0"  horiz-adv-x="1024" />

    
    <glyph glyph-name="icon_xiangqing" unicode="&#58994;" d="M512 384m-512 0a512 512 0 1 1 1024 0 512 512 0 1 1-1024 0ZM529.066667 452.266667l-51.2-5.688889c-22.755556-5.688889-34.133333-34.133333-28.444445-51.2 5.688889-11.377778 11.377778-22.755556 22.755556-28.444445l-45.511111-164.977777c-11.377778-28.444444 22.755556-62.577778 56.888889-56.888889l39.822222 11.377777c22.755556 5.688889 34.133333 28.444444 28.444444 51.2-5.688889 17.066667-17.066667 22.755556-28.444444 28.444445l45.511111 164.977778c11.377778 34.133333-17.066667 56.888889-39.822222 51.2zM546.133333 571.733333m-56.888889 0a56.888889 56.888889 0 1 1 113.777778 0 56.888889 56.888889 0 1 1-113.777778 0Z"  horiz-adv-x="1024" />

    
    <glyph glyph-name="shangyi" unicode="&#58951;" d="M500.032-40a436.032 436.032 0 1 0 436.032 435.968 436.48 436.48 0 0 0-436.032-435.968z m0 809.728a373.696 373.696 0 1 1 373.696-373.696 374.144 374.144 0 0 1-373.696 373.696zM677.824 418.816L522.752 577.984c-9.152 9.408-41.856 2.688-44.288 0L322.368 420.032a32 32 0 0 1 0-44.8 30.976 30.976 0 0 1 44.224 0l103.424 102.4v-240.64a27.52 27.52 0 0 1 30.08-28.032 27.84 27.84 0 0 1 30.528 28.032V479.488l102.784-105.344a30.912 30.912 0 0 1 44.224 0 32 32 0 0 1 0 44.8z"  horiz-adv-x="1024" />

    
    <glyph glyph-name="bianji1" unicode="&#58915;" d="M348.312 228.972c18.082-18.081 46.632-18.081 63.762 0L909.8 726.697c18.082 18.082 18.082 46.632 0 64.714s-46.632 18.082-63.762 0L348.312 293.686c-18.082-18.082-18.082-46.632 0-64.714zM899.33 452.616c-24.743 0-45.68-19.986-45.68-45.68v-364.491h-683.3v683.3h364.49c24.744 0 44.729 19.986 45.68 45.681 0 24.744-19.985 45.68-44.728 45.68H124.669c-24.743 0-45.68-19.985-45.68-45.68v-774.662c0-12.371 4.758-23.792 13.323-32.357 8.565-8.565 19.985-13.323 32.357-13.323h774.662c12.372 0 23.792 4.758 32.357 13.323 8.565 8.565 13.323 19.986 13.323 32.357V406.935c0 25.695-20.937 45.68-45.68 45.68z"  horiz-adv-x="1024" />

    
    <glyph glyph-name="wancheng" unicode="&#58882;" d="M387.018 685.374c17.18 0 31.1 13.925 31.1 31.1v10.365h186.598v-10.366c0-17.175 13.92-31.1 31.099-31.1s31.1 13.926 31.1 31.1V799.406c0 17.175-13.92 31.1-31.1 31.1s-31.1-13.926-31.1-31.1v-10.366H418.119V799.406c0 17.175-13.92 31.1-31.1 31.1s-31.099-13.926-31.099-31.1v-82.933c0-17.174 13.92-31.1 31.1-31.1zM400.417 581.055c-17.18 0-31.1-13.925-31.1-31.1v-30.34c0-17.174 13.92-31.099 31.1-31.099s31.099 13.926 31.099 31.1v30.34c0.001 17.175-13.92 31.099-31.1 31.099zM622.417 581.055c-17.18 0-31.1-13.925-31.1-31.1v-30.34c0-17.174 13.92-31.099 31.1-31.099s31.1 13.926 31.1 31.1v30.34c0 17.175-13.92 31.099-31.1 31.099zM511.104 349.62c43.774 0 74.783 30.183 86.212 48.017 9.182 14.33 5.021 33.21-9.202 42.57-14.214 9.379-33.429 5.385-42.975-8.707-0.132-0.198-13.556-19.68-34.035-19.68-19.904 0-32.295 18.04-33.125 19.29-9.151 14.35-28.174 18.728-42.65 9.718-14.588-9.065-19.073-28.245-10.002-42.832 11.166-17.964 41.79-48.376 85.777-48.376zM463.633-2.665h-197.46c-41.648 0-75.532 34.713-75.532 77.374V649.623c0 42.665 33.884 77.374 75.532 77.374 17.18 0 31.1 13.925 31.1 31.1s-13.92 31.098-31.1 31.098c-75.947 0-137.73-62.614-137.73-139.573v-574.914c0-76.96 61.783-139.574 137.73-139.574h197.46c17.18 0 31.1 13.92 31.1 31.1s-13.92 31.1-31.1 31.1zM756.661 789.197c-17.179 0-31.099-13.926-31.099-31.1s13.92-31.1 31.1-31.1c41.648 0 75.532-34.708 75.532-77.373v-305.025c0-17.176 13.92-31.1 31.099-31.1s31.1 13.925 31.1 31.1V649.623c0 76.96-61.785 139.574-137.732 139.574zM840.98 245.23L613.393 10.875 502.681 124.88c-11.976 12.326-31.656 12.615-43.977 0.648-12.32-11.966-12.614-31.656-0.648-43.976L591.08-55.43c0.109-0.11 0.239-0.183 0.348-0.292 0.112-0.111 0.186-0.245 0.3-0.356 0.771-0.749 1.644-1.312 2.47-1.964 0.704-0.556 1.363-1.184 2.102-1.67 1.031-0.681 2.132-1.188 3.22-1.732 0.73-0.366 1.426-0.817 2.178-1.122 1.25-0.507 2.548-0.823 3.841-1.162 0.643-0.168 1.263-0.43 1.913-0.556 1.962-0.38 3.95-0.581 5.94-0.581s3.977 0.2 5.938 0.581c0.651 0.127 1.27 0.388 1.913 0.556 1.294 0.339 2.591 0.655 3.842 1.162 0.752 0.305 1.448 0.756 2.178 1.122 1.088 0.544 2.188 1.05 3.22 1.731 0.738 0.487 1.397 1.115 2.101 1.671 0.826 0.652 1.699 1.216 2.47 1.964 0.114 0.11 0.189 0.245 0.3 0.356 0.11 0.109 0.24 0.181 0.348 0.292l249.901 257.332c11.966 12.32 11.673 32.01-0.648 43.976-12.317 11.96-31.999 11.682-43.974-0.649z"  horiz-adv-x="1024" />

    
    <glyph glyph-name="icon-" unicode="&#58910;" d="M764.96 470.56C763.52 599.52 650.56 704 512 704s-251.52-104.48-252.96-233.44L202.88 96h618.24zM277.12 160l45.44 304v4.8C323.04 562.88 407.84 640 512 640s188.96-77.12 188.96-172L746.88 160zM384 449.92l-16-142.4 64-7.04 16 144V448a61.28 61.28 0 0 0 64 64v64a125.12 125.12 0 0 1-128-126.08zM512 32a29.92 29.92 0 0 0-26.08 32h-64A93.28 93.28 0 0 1 512-32a93.28 93.28 0 0 1 90.08 96h-64A29.6 29.6 0 0 0 512 32zM448 800h128v-64h-128z"  horiz-adv-x="1024" />

    
    <glyph glyph-name="hetong" unicode="&#58894;" d="M724.36736 506.3424c-142.66368 0-262.7072-116.43392-262.7072-262.90176s116.33664-262.90688 262.7072-262.90688c146.46784 0.1024 262.80448 116.53632 262.80448 262.90688 3.69152 146.46784-116.34176 262.90176-262.80448 262.90176z m208.90112-261.19168v-1.59744c0-56.42752-21.5808-109.11744-60.69248-148.33152-39.11168-39.1168-91.79648-60.69248-148.21376-60.69248-56.42752 0-108.99968 21.58592-148.21888 60.69248-39.11168 39.11168-60.6976 91.8016-60.6976 148.33152 0 55.88992 22.02112 108.4672 61.8752 148.00384a210.80576 210.80576 0 0 0 66.68288 44.672 205.18912 205.18912 0 0 0 80.256 16.24576 215.28064 215.28064 0 0 0 84.5312-17.1008c25.7536-11.00288 48.61952-26.60864 67.96288-46.38208 37.82144-38.80448 57.91232-89.87648 56.51456-143.84128zM528.34816 18.57024H125.44V800.8448h583.27552v-244.75648c0-16.66048 13.46048-30.12608 30.12608-30.12608s30.1312 13.46048 30.1312 30.12608V802.91328c0 32.09728-26.08128 58.17344-58.17856 58.17344H123.37152c-32.09728 0-58.17856-26.16832-58.17856-58.17344v-786.41664c0-32.1024 26.08128-58.17344 58.17856-58.17344h404.98176a30.09536 30.09536 0 0 1 30.1312 30.12096 30.1056 30.1056 0 0 1-30.13632 30.12608zM588.95872 660.08576a30.78656 30.78656 0 0 1-30.78144 30.77632h-349.44a30.78144 30.78144 0 0 1 0-61.55264h349.44a30.78144 30.78144 0 0 1 30.78144 30.77632z m-69.14048-136.57088a30.78656 30.78656 0 0 1-30.77632 30.77632H209.80736a30.78656 30.78656 0 0 1-30.77632-30.77632 30.78656 30.78656 0 0 1 30.77632-30.77632h279.23968a30.78144 30.78144 0 0 1 30.7712 30.77632zM209.80736 416.54272c-16.98816 0-30.77632-13.78304-30.77632-30.7712s13.78816-30.78144 30.77632-30.78144h177.28512a30.78144 30.78144 0 0 1 0 61.55264H209.80736z m660.6848-97.73568l-81.13664 11.83232-36.33152 73.47712a28.99968 28.99968 0 0 1-25.98912 16.13312 29.05088 29.05088 0 0 1-26.01472-16.13312l-36.3264-73.58464-81.1264-11.71456a29.30688 29.30688 0 0 1-23.44448-19.73248c-3.3536-10.55744-0.57856-22.04672 7.31136-29.7216l58.74176-57.20576-13.824-80.7936a29.07648 29.07648 0 0 1 11.49952-28.42624 28.9536 28.9536 0 0 1 30.5152-2.2016l72.54528 38.17472 72.53504-38.17472a29.64992 29.64992 0 0 1 13.47584-3.36896 28.8256 28.8256 0 0 1 17.05472 5.57056c8.93952 6.51264 13.47584 17.53088 11.48928 28.43648l-13.80864 80.78848 58.73152 57.216a28.86656 28.86656 0 0 1 7.31648 29.71648 28.3648 28.3648 0 0 1-23.21408 19.712z m-76.13952-77.75232a39.4496 39.4496 0 0 1-11.41248-34.9952l8.87296-51.75808-46.39232 24.3712c-5.70368 3.01056-12.032 4.59264-18.36544 4.59264s-12.66688-1.5872-18.37056-4.59264l-46.39232-24.3712 8.86272 51.75808a39.3728 39.3728 0 0 1-11.40224 34.9952l-37.51936 36.57728 51.93216 7.59808c12.8256 1.89952 24.07424 9.97376 29.7728 21.68832l23.26528 47.02208 23.28064-47.02208c5.69344-11.71456 16.93696-19.7888 29.76256-21.68832l51.93216-7.59808-37.82656-36.57728z"  horiz-adv-x="1024" />

    
    <glyph glyph-name="bianji" unicode="&#58903;" d="M318.09038 200.89c0.03-0.03 0.04-0.06 0.07-0.07 21.02-20.98 55.06-20.95 76.03 0.07l588.61 588.5c21.04 21.05 21.04 55.18 0 76.23-0.06 0.07-0.13 0.13-0.18 0.18-21.05 20.95-55.09 20.87-76.03-0.18l-588.5-588.5c-21.03-21.05-21.03-55.18 0-76.23zM970.12038 464.87h-0.23c-29.63 0-53.65-24.02-53.65-53.65v-431.43H107.81038v808.6l431.4-0.2h0.04c29.69 0.08 53.69 24.23 53.61 53.92v0.23c0 29.63-24.02 53.65-53.65 53.65H53.54038a53.708 53.708 0 0 1-38.02-15.8A53.326 53.326 0 0 1 0.00038 842.38v-916.83a54.272 54.272 0 0 1 15.79-38.01 53.307 53.307 0 0 1 37.82-15.52h916.86a54.272 54.272 0 0 1 38.01 15.79 53.417 53.417 0 0 1 15.52 37.86V411.22c-0.07 29.69-24.19 53.71-53.88 53.65z"  horiz-adv-x="1024" />

    
    <glyph glyph-name="baogao" unicode="&#58896;" d="M96.5-56.3h834v501h-30v379h-774v-379h-30v-501z m416.8 345.5c-83.8 0-152.2 69.4-154 155.5H190.5v312h646v-312H667.3c-1.8-86.1-70.2-155.5-154-155.5z m0-66.6c96 0 178.7 65.9 207.5 157.1h144.7v-370h-705v370h145.3c28.8-91.3 111.5-157.1 207.5-157.1zM363.5 521.7h299v59h-299v-59z m0 115h299v60h-299v-60z"  horiz-adv-x="1024" />

    
    <glyph glyph-name="xiangmu" unicode="&#58912;" d="M86.506667 567.765333c20.608 0 37.248 18.666667 37.248 41.749334V760.853333c0 8.064 5.845333 14.613333 13.056 14.634667h77.781333a12.8 12.8 0 0 0 11.370667-7.573333l30.165333-60.544c15.424-31.018667 44.8-50.325333 76.544-50.325334h554.474667c7.210667 0 13.056-6.549333 13.056-14.634666v-32.917334c0-23.082667 16.661333-41.749333 37.248-41.749333 20.608 0 37.269333 18.666667 37.269333 41.749333v32.917334c0 54.101333-39.274667 98.112-87.573333 98.112h-554.453334a12.8 12.8 0 0 0-11.370666 7.573333l-30.165334 60.544c-15.424 31.018667-44.8 50.325333-76.544 50.325333H136.832c-48.277333 0-87.573333-44.010667-87.573333-98.112v-151.338666c0-23.061333 16.661333-41.749333 37.248-41.749334z m908.608-50.816c-16.298667 21.162667-40 33.322667-64.938667 33.301334H93.717333c-24.938667 0.021333-48.661333-12.117333-64.938666-33.301334-16.298667-21.141333-23.530667-49.194667-19.818667-76.8l59.989333-448.341333c6.314667-47.424 41.984-81.728 84.650667-81.728h716.458667c42.112 0 78.464 35.178667 84.650666 81.728l60.010667 448.341333c3.925333 27.626667-3.264 55.616-19.605333 76.8z m-53.909334-64.448l-59.989333-448.341333c-0.789333-6.058667-5.504-10.602667-11.029333-10.602667H153.834667c-5.525333 0-10.133333 4.416-11.029334 10.602667L82.794667 452.501333a13.290667 13.290667 0 0 0 2.581333 9.962667 10.453333 10.453333 0 0 0 8.448 4.288h836.458667a10.538667 10.538667 0 0 0 8.426666-4.288 13.610667 13.610667 0 0 0 2.496-9.962667z m0 0M674.325333 364.736H349.696c-20.586667 0-37.248-18.666667-37.248-41.749333s16.661333-41.749333 37.248-41.749334h324.522667c20.608 0 37.248 18.666667 37.248 41.749334s-16.554667 41.749333-37.141334 41.749333z m0 0"  horiz-adv-x="1024" />

    
    <glyph glyph-name="daochu3" unicode="&#59114;" d="M778.168 262.306c-2.256 6.69-9.647 12.08-16.508 12.037l-603.725 0.211c-6.86-0.043-10.593-5.501-8.337-12.19L254.05-51.421c2.256-6.69 9.647-12.079 16.508-12.036l599.63-0.212c6.861 0.043 10.594 5.501 8.338 12.19L778.168 262.307zM879.2 334.27c0-22.605-18.326-40.932-40.932-40.932H700.045c-22.606 0-40.932 18.327-40.932 40.932v82.552c0 22.605 18.326 40.932 40.932 40.932h138.223c22.606 0 40.932-18.327 40.932-40.932v-82.552zM747.754 575.695l0.347-100.283 132.417 177.49L747.911 826.408l0.328-95.164s-386.65 27.078-416.308-367.272h24.872c49.889 83.722 172.522 237.23 390.951 211.723zM864.874 363.97h-508.07c-18.151-30.461-26.674-51.686-26.674-51.686-0.063 17.99 0.562 35.201 1.802 51.687h-67.03c-7.912 0-14.326-6.414-14.326-14.326v-60.529l520.336-0.182c7.287 0.046 15.137-5.678 17.533-12.784l90.756-283.766v357.26c0 7.913-6.415 14.327-14.327 14.327z"  horiz-adv-x="1024" />

    
    <glyph glyph-name="shijian" unicode="&#59152;" d="M512.353 765.458c-210.88 0-381.847-170.91-381.847-381.79 0-210.88 170.967-381.82 381.847-381.82 210.853 0 381.793 170.94 381.793 381.82 0 210.882-170.94 381.79-381.793 381.79z m190.955-423.93H500.574c-4.288 0-8.405 0.856-12.178 2.457-11.207 4.746-19.099 15.866-19.099 28.818V575.537c0 17.296 14.008 31.305 31.277 31.305 17.327 0 31.337-14.01 31.337-31.305V404.14h171.397c17.298 0 31.306-14.01 31.306-31.306 0-17.298-14.009-31.305-31.306-31.305z"  horiz-adv-x="1024" />

    
    <glyph glyph-name="xiangqing" unicode="&#59710;" d="M841.6 694.4c0 48-38.4 86.4-86.4 86.4H608C585.6 828.8 537.6 864 476.8 864s-108.8-35.2-131.2-86.4H201.6c-48 0-86.4-38.4-86.4-86.4V32c0-48 38.4-86.4 86.4-86.4h224l28.8 124.8 387.2 387.2V694.4zM476.8 771.2c28.8 0 54.4-22.4 54.4-54.4 0-28.8-22.4-54.4-54.4-54.4s-54.4 22.4-54.4 54.4 25.6 54.4 54.4 54.4z m172.8-396.8H224v64h425.6v-64z m86.4 128H224v64h512v-64z m208-185.6l-51.2 51.2c-16 16-38.4 16-51.2 0l-16-16-307.2-297.6-32-128v-3.2c0-3.2 0-3.2 3.2-3.2 3.2-6.4 9.6-9.6 12.8-9.6h3.2l128 41.6 300.8 297.6 16 16c6.4 12.8 6.4 35.2-6.4 51.2z"  horiz-adv-x="1024" />

    
    <glyph glyph-name="add-fill" unicode="&#59052;" d="M825.82 696.975C741.931 780.456 630.434 826.434 511.806 826.434S281.64 780.456 197.744 696.976 67.6 502.386 67.6 384.234s46.225-229.24 130.143-312.75 195.394-129.458 314.033-129.458 230.155 45.928 314.013 129.457 130.143 194.63 130.143 312.781-46.156 229.201-130.114 312.711z m-91.916-344.472H543.537v-190.377c0-17.524-14.206-31.731-31.73-31.731s-31.731 14.207-31.731 31.73V352.504H289.698c-17.524 0-31.73 14.206-31.73 31.73s14.206 31.731 31.73 31.731h190.377V606.3330000000001c0 17.524 14.206 31.73 31.73 31.73 17.526 0 31.731-14.206 31.731-31.73v-190.377h190.367c17.524 0 31.73-14.207 31.73-31.73s-14.206-31.732-31.73-31.732v0.009z"  horiz-adv-x="1028" />

    
    <glyph glyph-name="shanchu1" unicode="&#59000;" d="M874.124979 746.125004A512.499987 512.499987 0 0 1 511.999988 896C229.249994 896 0 666.875006 0 384.000012s229.249994-511.999988 511.999988-511.999987a511.999988 511.999988 0 0 1 362.124991 874.124979z m-46.499999-677.749984a446.374989 446.374989 0 0 0-315.749992-130.749997c-246.374994 0-446.249989 199.749995-446.24999 446.374989S265.499994 830.375002 511.999988 830.375002s446.374989-199.874995 446.374989-446.37499a446.124989 446.124989 0 0 0-130.749997-315.624992zM279.999993 342.375014m0 41.249999l0 0q0 41.249999 41.249999 41.249999l382.474991 0q41.249999 0 41.249999-41.249999l0 0q0-41.249999-41.249999-41.249999l-382.474991 0q-41.249999 0-41.249999 41.249999Z"  horiz-adv-x="1024" />

    
    <glyph glyph-name="shangchuan" unicode="&#58914;" d="M967.111111-71.111111H56.888889v341.333333h113.777778v-227.555555h682.666666v227.555555h113.777778zM312.888889 457.955556L233.244444 537.6l278.755556 284.444444 278.755556-284.444444-79.644445-79.644444L512 657.066667zM455.111111 725.333333h113.777778v-568.888889H455.111111z"  horiz-adv-x="1024" />

    
    <glyph glyph-name="cha" unicode="&#58899;" d="M512 384m-512 0a512 512 0 1 1 1024 0 512 512 0 1 1-1024 0ZM571.733333 392.533333l153.6-153.6c17.066667-17.066667 17.066667-42.666667 0-59.733333s-42.666667-17.066667-59.733333 0L503.466667 324.266667 358.4 179.2c-17.066667-17.066667-42.666667-17.066667-59.733333 0-17.066667 17.066667-17.066667 42.666667 0 59.733333l153.6 153.6-153.6 145.066667c-17.066667 17.066667-17.066667 42.666667 0 59.733333 17.066667 17.066667 42.666667 17.066667 59.733333 0L512 443.733333l153.6 153.6c17.066667 17.066667 42.666667 17.066667 59.733333 0 17.066667-17.066667 17.066667-42.666667 0-59.733333L571.733333 392.533333z"  horiz-adv-x="1024" />

    
    <glyph glyph-name="bohui" unicode="&#58895;" d="M696.4 250.3c14.6-14.8 14.6-38.8 0-53.6-14.6-14.8-38.1-14.8-52.6 0L512 330.8l-131.6-134c-14.6-14.8-38.1-14.8-52.6 0s-14.6 38.8 0 53.6l131.6 134-131.7 134c-14.6 14.8-14.6 38.8 0 53.6 14.4 14.8 38.1 14.8 52.6 0L512 437.9 643.6 572c14.6 14.8 38.1 14.8 52.6 0 14.6-14.8 14.6-38.8 0-53.6L564.6 384.3l131.8-134z m0 0M512-127.3C229.9-127.3 0.3 102.2 0.3 384.4S229.9 896 512 896s511.7-229.5 511.7-511.7c0-37.6-4.1-75.3-12.3-112.1-3.8-17.2-20.6-28.1-38.2-24.3-17.2 3.9-28.1 20.9-24.3 38.2 7.2 32.2 10.8 65.3 10.8 98.3C959.7 631.2 758.9 832 512 832 265.1 832 64.3 631.2 64.3 384.3S265.1-63.4 512-63.4c42.4 0 84.2 5.9 124.4 17.6 17 5 34.7-4.9 39.6-21.8 4.9-17-4.8-34.7-21.8-39.7-45.9-13.3-93.7-20-142.2-20zM819.6 52.9c0-8.4 3.4-16.7 9.4-22.6 5.9-5.9 14.2-9.4 22.6-9.4 8.4 0 16.7 3.4 22.6 9.4 5.9 5.9 9.4 14.2 9.4 22.6 0 8.4-3.4 16.7-9.4 22.6-5.9 5.9-14.2 9.4-22.6 9.4-8.4 0-16.7-3.4-22.6-9.4-5.9-5.9-9.4-14.2-9.4-22.6z m0 0"  horiz-adv-x="1024" />

    
    <glyph glyph-name="shanchuSVG-" unicode="&#59641;" d="M512-128a512 512 0 1 0 512 512 512 512 0 0 0-512-512zM259.915294 444.235294h504.169412a49.091765 49.091765 0 1 0 0-98.183529H259.915294a49.091765 49.091765 0 0 0 0 98.183529z"  horiz-adv-x="1024" />

    
    <glyph glyph-name="wenjian" unicode="&#58891;" d="M936.781856 664.809111a285.820849 285.820849 0 0 1-201.712872 82.791505h-0.731374c-36.714961 0-72.552273-6.874913-106.56115-20.33219a281.798294 281.798294 0 0 1-94.34721-61.581667L267.428629 402.611633c-30.717696-30.425147-47.539292-70.943251-47.466155-114.313712a160.170844 160.170844 0 0 1 48.051254-114.240575c30.790834-30.571421 71.674624-47.31988 115.410772-47.466155h0.29255c43.589874 0 84.32739 16.675321 114.971948 46.807918l233.600766 230.894683a39.859868 39.859868 0 0 1 0 57.120288 40.956928 40.956928 0 0 1-57.632249 0L441.056749 230.592534a80.963071 80.963071 0 0 0-57.485974-23.330821h-0.146275a82.498955 82.498955 0 0 0-58.071073 23.769645 80.304834 80.304834 0 0 0-23.989058 57.412837 78.622675 78.622675 0 0 0 23.550234 56.900876l266.220033 263.148263a202.151696 202.151696 0 0 0 143.276112 58.290486h0.511961c54.633617-0.073137 105.976052-21.1367 144.44631-59.094997 38.39712-38.031433 59.680095-88.642495 59.82637-142.617875a197.617179 197.617179 0 0 0-58.875584-142.032776l-282.383393-279.38476a300.667736 300.667736 0 0 0-212.317791-86.155824H384.740973a303.154406 303.154406 0 0 0-213.561126 87.545434 295.25557 295.25557 0 0 0-88.49622 211.074455 292.330075 292.330075 0 0 0 87.326022 210.343081L534.599448 826.881527a39.859868 39.859868 0 0 1 0 57.120287A40.956928 40.956928 0 0 1 476.894062 884.221226L112.3774 523.653983a372.708047 372.708047 0 0 1-111.168805-267.682781c0.073137-49.294589 9.507858-97.272705 28.304163-142.617875a382.06963 382.06963 0 0 1 210.855043-208.587784c45.710857-18.430618 94.274072-27.792201 144.226897-28.011614h1.023923a383.971202 383.971202 0 0 1 269.65749 109.92547l282.383393 279.311623a279.750447 279.750447 0 0 1 82.864642 199.51875 280.481821 280.481821 0 0 1-83.74229 199.445613z"  horiz-adv-x="1024" />

    
    <glyph glyph-name="tongguo" unicode="&#59236;" d="M817.335198 506.309115l-307.451964-315.515859a41.023462 41.023462 0 0 0-58.751229 57.343247l307.451964 315.515859a41.023462 41.023462 0 0 0 58.751229-57.343247zM451.643998 190.665258a40.959462 40.959462 0 0 1 56.319261 59.519218L333.885544 401.094496a40.959462 40.959462 0 0 1-56.319261-59.583218l174.077715-150.782021zM512.4432 896a511.99328 511.99328 0 1 0-204.413317-981.555117 41.023462 41.023462 0 0 0 32.831569 75.199013 430.010356 430.010356 0 1 1-201.14936 179.965638 40.959462 40.959462 0 1 0-71.039067-40.959463A511.99328 511.99328 0 0 0 512.507199 896zM158.783842 70.410836a40.959462 40.959462 0 0 0 57.983239 1.53598l6.463915-6.015921a40.959462 40.959462 0 1 0-55.167276-60.671204 514.873242 514.873242 0 0 0-7.679899 7.167906 40.959462 40.959462 0 0 0-1.599979 57.983239z"  horiz-adv-x="1024" />

    
    <glyph glyph-name="ziyuan16" unicode="&#58892;" d="M1020.978539 510.142828a60.230564 60.230564 0 0 1-48.485604 42.161395L689.10813 594.766771l-126.484185 266.520247a57.821342 57.821342 0 0 1-106.005793 0L331.338579 594.766771l-280.072124-44.87177a55.110966 55.110966 0 0 1-48.485604-42.161395A64.446704 64.446704 0 0 1 18.139645 444.19036l203.579307-208.096599-48.485604-292.118237a62.037481 62.037481 0 0 1 21.984155-60.230564 65.952468 65.952468 0 0 1 35.536033-11.74496 58.122494 58.122494 0 0 1 26.501449 6.926515l252.366064 137.927992 252.366064-137.927992a63.242092 63.242092 0 0 1 64.145551 4.818445 62.338634 62.338634 0 0 1 22.285309 60.230564l-46.678688 294.527459 203.88046 208.0966a60.230564 60.230564 0 0 1 15.358794 63.543245zM752.952528 285.783976a60.230564 60.230564 0 0 1-17.768016-56.014424L783.067811-50.904878 538.53172 82.806975A58.423647 58.423647 0 0 1 481.914989 82.806975l-240.922257-133.711853 45.172923 280.67443a71.975524 71.975524 0 0 1-17.768016 56.014424l-194.845875 198.760862 271.037539 42.161395A54.207508 54.207508 0 0 1 391.569143 559.230738l120.461128 257.184509 120.461129-257.184509a60.230564 60.230564 0 0 1 44.269465-32.524505l271.037539-42.161395zM375.324789 470.069687m24.716037-22.951487l179.853309-167.013053q24.716037-22.951487 1.76455-47.667524l-1.229544-1.324074q-22.951487-24.716037-47.667524-1.76455l-179.853309 167.013053q-24.716037 22.951487-1.76455 47.667524l1.229544 1.324074q22.951487 24.716037 47.667524 1.76455Z"  horiz-adv-x="1024" />

    
    <glyph glyph-name="daochu" unicode="&#58881;" d="M752.2304 718.506667C604.7744 718.506667 273.066667 573.098667 273.066667 179.2c64.512 251.357867 287.9488 338.944 479.163733 338.944V396.288c0-9.489067 4.778667-17.954133 12.834133-21.572267 2.6624-1.160533 2.6624-1.774933 8.260267-1.774933a20.6848 20.6848 0 0 1 15.291733 6.826667l229.102934 222.208a24.712533 24.712533 0 0 1 0 32.904533L788.616533 855.04a20.48 20.48 0 0 1-23.552 5.051733 23.005867 23.005867 0 0 1-12.834133-21.504V718.506667zM909.1072 340.650667v-360.994134a26.897067 26.897067 0 0 0-26.897067-26.897066H141.789867a26.897067 26.897067 0 0 0-26.897067 26.897066V720.0768c0 14.813867 12.0832 26.897067 26.897067 26.897067H512A40.413867 40.413867 0 0 1 512 827.733333H141.789867C82.397867 827.733333 34.133333 779.537067 34.133333 720.0768v-740.420267c0-59.392 48.196267-107.656533 107.656534-107.656533h740.420266c59.392 0 107.656533 48.196267 107.656534 107.656533V340.650667a40.413867 40.413867 0 1 1-80.759467 0z"  horiz-adv-x="1024" />

    
    <glyph glyph-name="zonghedefen" unicode="&#58893;" d="M442.6752 184.0128h141.7216v-141.7216H442.6752zM623.0016-11.0592H403.968v68.608c0 12.9024 10.5472 23.4496 23.4496 23.4496h172.2368c12.9024 0 23.4496-10.5472 23.4496-23.4496v-68.608h-0.1024z m0 0M733.2864-114.688H293.6832c-12.9024 0-23.4496 4.4032-23.4496 9.9328v84.3776c0 5.4272 10.5472 9.9328 23.4496 9.9328h439.7056c12.9024 0 23.4496-4.4032 23.4496-9.9328v-84.3776c-0.1024-5.5296-10.5472-9.9328-23.552-9.9328z m0 0M227.9424 752.2304v-319.1808c-93.9008 13.1072-166.4 93.9008-166.4 191.3856V752.2304h166.4m58.4704 58.4704H49.7664C23.8592 810.7008 2.8672 789.7088 2.8672 763.904v-139.5712c0-139.0592 112.7424-251.8016 251.8016-251.8016h31.744V810.7008z m679.1168-58.4704v-121.9584c0-98.6112-72.192-180.736-166.4-196.4032V752.2304h166.4m11.776 58.4704H740.5568v-438.0672h25.9072c142.2336 0 257.536 115.3024 257.536 257.536V763.904c0.1024 25.8048-20.992 46.7968-46.6944 46.7968z m0 0M513.536 155.8528c-182.3744 0-330.1376 147.8656-330.1376 330.1376V851.0464c0 12.1856 9.9328 22.2208 22.2208 22.2208h615.8336c12.1856 0 22.2208-9.9328 22.2208-22.2208v-365.056c0-182.272-147.8656-330.1376-330.1376-330.1376z m0 0M822.0672 368.2304L657.1008 585.0112l-231.424-165.888L612.7616 171.008c49.152 16.2816 83.5584 37.9904 116.4288 65.3312 39.1168 32.5632 70.5536 75.9808 92.8768 131.8912z m0 0M525.0048 682.1888l35.1232-70.9632c1.6384-3.4816 5.0176-5.8368 8.8064-6.3488l78.336-11.4688c9.6256-1.3312 13.4144-13.2096 6.4512-19.968l-56.7296-55.296c-2.7648-2.6624-3.9936-6.656-3.3792-10.3424l13.312-78.0288c1.6384-9.5232-8.3968-16.7936-16.9984-12.288l-75.5712 39.6288-75.5712-39.6288c-8.6016-4.5056-18.6368 2.7648-16.9984 12.288l13.312 78.0288c0.7168 3.7888-0.6144 7.5776-3.3792 10.3424l-56.7296 55.296c-6.9632 6.7584-3.1744 18.6368 6.4512 19.968l78.336 11.4688c3.7888 0.6144 7.0656 2.8672 8.8064 6.3488l35.1232 70.9632c4.608 8.704 17.1008 8.704 21.2992 0z m0 0"  horiz-adv-x="1024" />

    
    <glyph glyph-name="tongji" unicode="&#58961;" d="M472.684151 348.566485V816.983505A465.2281 465.2281 0 0 1 235.28672 754.268064a473.023239 473.023239 0 0 1-171.847394-172.201718A464.519451 464.519451 0 0 1 0.015236 344.668915a460.621881 460.621881 0 0 1 63.42409-237.043107 469.479994 469.479994 0 0 1 408.8905-235.271483 460.621881 460.621881 0 0 1 183.894428 35.432452 467.708372 467.708372 0 0 1 152.005221 103.108436l-335.899649 336.253974zM587.485297 344.668915zM587.485297 344.668915L921.258998 10.186564a469.12567 469.12567 0 0 1 141.72981 335.899649zM549.926897 895.997874v-476.21216H1027.556355A476.21216 476.21216 0 0 1 549.926897 895.997874z"  horiz-adv-x="1062" />

    
    <glyph glyph-name="yonghuquanxian" unicode="&#58941;" d="M512 896l438.857143-168.265143v-336.566857c0-230.509714-156.598857-420.388571-386.194286-504.795429-52.041143-19.163429-53.284571-19.163429-105.325714 0C229.741714-29.257143 73.142857 160.658286 73.142857 391.168V727.771429L512 896z m-18.761143-259.291429c-68.498286 0-124.233143-54.564571-124.233143-121.673142 0-56.722286 39.862857-104.594286 93.622857-117.906286v-272.457143h61.257143V243.2h122.587429v63.268571h-122.587429V397.165714c53.686857 13.421714 93.622857 61.184 93.622857 117.906286 0 67.108571-55.771429 121.673143-124.269714 121.673143z m0-63.158857c32.841143 0 59.611429-26.185143 59.611429-58.404571s-26.770286-58.441143-59.611429-58.441143c-32.804571 0-59.611429 26.221714-59.611428 58.441143 0 32.182857 26.806857 58.404571 59.611428 58.404571z"  horiz-adv-x="1024" />

    
    <glyph glyph-name="jixiaokaohe" unicode="&#58954;" d="M361.687498 536.893961l-39.927722-93.245839h82.0466z m0 0M868.574802 895.269615H154.01465C77.324207 895.269615 38.12687 857.533048 35.20533 782.7903v-798.554446c2.921541-74.499287 42.118878-112.235854 118.80932-112.235854h714.560152c79.611983 0 119.539705 39.684261 119.539705 120.026629V774.269139c0 80.342368-39.927722 121.730861-119.539705 121.730861zM214.393156 339.933428l116.374703 275.111746a30.432715 30.432715 0 0 0 8.52116 17.772705l1.460771 1.460771s2.191155 1.46077 2.92154 2.92154a26.780789 26.780789 0 0 0 21.424632 7.790775 27.754636 27.754636 0 0 0 19.720399-10.712315c1.46077-1.46077 2.191155-2.921541 3.651926-4.382311s0-1.46077 1.460771-1.947694a28.24156 28.24156 0 0 0 3.408464-6.573467l132.199714-293.614836a36.032335 36.032335 0 0 0 0-24.346172 30.919639 30.919639 0 0 0-18.50309-15.094626 32.623871 32.623871 0 0 0-39.927723 19.963861l-34.084641 76.203518a29.215407 29.215407 0 0 0-7.790775-1.46077h-121.730861a17.285782 17.285782 0 0 0-5.599619 1.46077l-25.563481-61.839277a31.1631 31.1631 0 0 0-21.424631-21.424631 29.458868 29.458868 0 0 0-28.971945 8.52116 30.676177 30.676177 0 0 0-7.303852 30.676177zM763.886262 298.058012h-121.730861a41.631954 41.631954 0 0 0-41.631954 41.631955 41.875416 41.875416 0 0 0 41.631954 41.631954h121.730861a41.875416 41.875416 0 0 0 41.631954-41.631954 41.631954 41.631954 0 0 0-41.631954-41.631955z m6.330004-203.290537H253.347032a41.631954 41.631954 0 0 0-41.631954 41.631954 41.631954 41.631954 0 0 0 41.631954 41.875416h516.869234a41.875416 41.875416 0 0 0 41.631955-41.875416 41.875416 41.875416 0 0 0-41.631955-41.631954z m-6.330004 423.136472h-121.730861a41.875416 41.875416 0 0 0-41.631954 41.631954 41.631954 41.631954 0 0 0 41.631954 41.631954h121.730861a41.631954 41.631954 0 0 0 41.631954-41.631954 41.875416 41.875416 0 0 0-41.631954-41.631954z"  horiz-adv-x="1024" />

    
    <glyph glyph-name="xingzhuang9" unicode="&#59016;" d="M626.395429 176.932571c-24.795429 4.169143-25.307429 76.214857-25.307429 76.214858a372.589714 372.589714 0 0 1 88.722286 178.688c42.715429 0 69.046857 108.982857 26.404571 147.309714C717.970286 619.52 771.145143 896 502.272 896s-215.771429-276.48-213.942857-316.854857c-42.715429-38.326857-16.310857-147.309714 26.404571-147.309714a372.370286 372.370286 0 0 1 88.722286-178.688s-0.585143-72.045714-25.380571-76.214858C298.130286 163.474286 0 24.429714 0-128h1004.397714c0 152.429714-298.130286 291.474286-378.002285 304.932571z m0 0l333.750857 17.773715a94.281143 94.281143 0 0 0-23.917715 71.899428 351.085714 351.085714 0 0 1 83.675429 168.228572c40.228571 0 65.170286 102.4 24.868571 138.971428 1.682286 38.034286 51.785143 298.788571-201.728 298.788572a287.012571 287.012571 0 0 1-67.437714-7.314286c109.714286-76.580571 77.897143-248.685714 76.507429-280.283429 42.715429-38.326857 16.310857-147.309714-26.404572-147.309714a367.323429 367.323429 0 0 0-79.140571-167.716571c-1.316571-3.657143-2.998857-11.922286-2.998857-11.922286a225.792 225.792 0 0 1-1.462857-43.885714 36.571429 36.571429 0 0 1 20.260571-31.158857c74.678857-12.580571 340.553143-135.168 374.418286-275.748572H1316.571429c0 143.798857-281.088 274.870857-356.425143 287.524572z m0 0"  horiz-adv-x="1316" />

    
    <glyph glyph-name="chengguo" unicode="&#58900;" d="M353.9 3.8h65v64.9h-65v-64.9z m129.8-65h64.9V68.7h-64.9v-129.9z m129.9 65h64.9v64.9h-64.9v-64.9zM733.8 579C692.2 704.2 609.7 798.9 509.5 832.9 399.5 796.8 310.2 692 270.3 554.8c-68.5-65.1-111.2-157-111.2-258.9 0-32.2 5.6-62.9 13.7-92.6 23.7 33.2 52 63 84 88.2 10.4-57.7 29.4-110.9 54.6-157.9h390.1c26.5 50.8 45.8 108.9 55.2 172 39.9-27.9 74.7-62.6 102.9-102.3 8 29.7 13.7 60.3 13.7 92.6 0 115.3-54.7 217.8-139.5 283.1zM516.2 393.3c-53.8 0-97.4 43.6-97.4 97.4 0 53.8 43.6 97.4 97.4 97.4 53.8 0 97.4-43.6 97.4-97.4 0-53.8-43.6-97.4-97.4-97.4z"  horiz-adv-x="1024" />

    
    <glyph glyph-name="xuekeguanli" unicode="&#59276;" d="M0-118.4h254.4V860.928H0V-118.4zM63.616 721.024H190.72v-69.952H63.616V721.088zM318.016-118.4h254.4V860.992H318.08V-118.4z m63.616 839.552H508.8v-69.952H381.632V721.088zM826.816 896L578.752 833.024l190.848-958.464 248.064 55.936L826.816 896z m-146.24-251.84l-12.8 69.952 127.232 27.968 12.8-69.952-127.232-27.968z"  horiz-adv-x="1024" />

    
    <glyph glyph-name="home-active" unicode="&#58880;" d="M556.65283203 763.07446289a63.39990234 63.39990234 0 0 1-85.19238281 0L126.97314453 435.96972656a31.77905273 31.77905273 0 0 1 42.55664063-47.20385742l5.4777832 5.20092774V52.56445312000005a63.55810547 63.55810547 0 0 1 63.55810547-63.63720703h184.95922851v191.34667969a44.75170898 44.75170898 0 0 0 44.77148438 44.81103516h87.03149414a44.75170898 44.75170898 0 0 0 44.77148437-44.81103516v-191.34667969h189.34936524a63.55810547 63.55810547 0 0 1 63.57788086 63.63720704V389.79418945c14.11962891-12.77490234 34.15209961-11.8059082 45.89868164 1.28540039a31.77905273 31.77905273 0 0 1-2.29394531 44.89013672L556.65283203 763.0546875z"  horiz-adv-x="1024" />

    
    <glyph glyph-name="menhuwangzhan" unicode="&#59024;" d="M904.07 685.722L577.999 873.816C559.066 884.934 536.3 891.5 511.999 891.5c-24.3 0-47.067-6.566-66.623-18.021L120.541 686.051c-39.743-23.238-66.018-65.701-66.03-114.301v-375.516c0.018-48.601 26.299-91.06 65.421-113.957L446-105.816c18.933-11.118 41.699-17.684 66-17.684 24.3 0 47.067 6.566 66.623 18.022l324.836 187.427c39.743 23.238 66.018 65.701 66.03 114.301V571.765c-0.018 48.601-26.298 91.06-65.419 113.957zM739.478 538.155L564.092 182.6c-8.667-17.224-26.506-29.04-47.103-29.04-1.766 0-3.515 0.086-4.801 0.256-1.724-0.17-3.471-0.256-5.24-0.256-20.597 0-38.434 11.816-47.24 29.342L284.598 537.86c-3.79 7.285-5.931 15.563-5.931 24.343 0 29.175 23.649 52.825 52.824 52.825 20.949 0 39.047-12.193 47.728-30.184l132.562-269.129L644.418 585.15c8.669 17.323 26.578 29.216 47.268 29.216 8.492 0 16.515-2.004 23.319-5.425l0.309-0.137c17.499-8.607 29.541-26.612 29.541-47.429 0-8.453-1.987-16.442-5.377-23.22z"  horiz-adv-x="1024" />

    
    <glyph glyph-name="huabanbeifen" unicode="&#58913;" d="M1014.983111 238.734222a41.102222 41.102222 0 0 1-56.632889 12.231111L509.610667-38.172444 63.175111 249.543111a41.102222 41.102222 0 0 1-56.661333-12.231111 41.102222 41.102222 0 0 1 12.231111-56.661333l466.944-300.942223c3.271111-2.275556 6.826667-4.152889 10.524444-5.432888 0.284444-0.142222 0.455111-0.142222 0.568889-0.284445 0.284444-0.142222 0.455111-0.142222 0.853334-0.284444 0.455111-0.142222 0.853333-0.284444 1.308444-0.284445h0.142222c3.128889-0.853333 6.4-1.28 9.528889-1.422222h1.848889c3.128889 0.142222 6.542222 0.568889 9.528889 1.422222h0.170667a4.067556 4.067556 0 0 0 1.28 0.284445c0.284444 0.142222 0.568889 0.142222 0.853333 0.284444 0.284444 0.142222 0.426667 0.142222 0.568889 0.284445 3.697778 1.28 7.253333 3.128889 10.524444 5.404444L1002.752 182.044444a40.96 40.96 0 0 1 12.231111 56.689778zM1014.983111 404.707556a41.102222 41.102222 0 0 1-56.632889 12.231111l-448.739555-288.995556-446.435556 287.573333a41.102222 41.102222 0 0 1-56.661333-12.231111 41.102222 41.102222 0 0 1 12.231111-56.661333l466.944-300.942222c3.271111-2.275556 6.826667-4.124444 10.524444-5.404445 0.284444-0.142222 0.455111-0.142222 0.568889-0.284444 0.284444-0.142222 0.568889-0.142222 0.853334-0.284445 0.455111-0.142222 0.853333-0.284444 1.308444-0.284444h0.142222c3.128889-0.853333 6.4-1.28 9.528889-1.422222h1.848889c3.128889 0.142222 6.542222 0.568889 9.528889 1.422222h0.170667a4.039111 4.039111 0 0 0 1.28 0.284444c0.284444 0.142222 0.568889 0.142222 0.853333 0.284445 0.284444 0.142222 0.426667 0.142222 0.568889 0.284444 3.697778 1.28 7.253333 3.128889 10.524444 5.404445L1002.609778 347.875556a41.073778 41.073778 0 0 1 12.373333 56.803555zM1002.752 585.216L533.532444 887.580444a43.292444 43.292444 0 0 1-10.524444 5.432889c-0.284444 0.142222-0.426667 0.142222-0.568889 0.284445-0.284444 0.142222-0.568889 0.142222-0.853333 0.284444a4.124444 4.124444 0 0 1-1.308445 0.284445h-0.113777a43.975111 43.975111 0 0 1-9.557334 1.422222h-1.848889a42.666667 42.666667 0 0 1-9.528889-1.422222h-0.142222c-0.426667-0.142222-0.853333-0.284444-1.28-0.284445-0.284444-0.142222-0.568889-0.142222-0.853333-0.284444-0.284444-0.142222-0.426667-0.142222-0.568889-0.284445-3.697778-1.28-7.281778-3.128889-10.524444-5.404444L18.858667 586.666667c-12.8-8.248889-19.484444-22.499556-18.631111-36.750223-0.853333-14.222222 5.973333-28.615111 18.631111-36.721777l466.944-300.942223c3.271111-2.275556 6.826667-4.124444 10.524444-5.404444 0.284444-0.170667 0.455111-0.170667 0.568889-0.284444 0.284444-0.170667 0.455111-0.170667 0.853333-0.284445 0.455111-0.170667 0.853333-0.284444 1.308445-0.284444h0.142222c3.128889-0.853333 6.4-1.308444 9.528889-1.422223h1.848889a42.666667 42.666667 0 0 1 9.557333 1.422223h0.113778c0.455111 0.113778 0.853333 0.284444 1.308444 0.284444 0.284444 0.113778 0.568889 0.113778 0.853334 0.284445 0.284444 0.113778 0.426667 0.113778 0.568889 0.284444 3.697778 1.28 7.253333 3.128889 10.524444 5.404444l469.219556 302.364445c12.373333 7.964444 19.057778 21.504 18.773333 35.299555a40.903111 40.903111 0 0 1-18.773333 35.299556z"  horiz-adv-x="1024" />

    
    <glyph glyph-name="jiaoyukeyan" unicode="&#59411;" d="M56.634732 792.940238c24.682137-3.797252 42.409757-26.516764 42.409756-53.033528v-624.989256c0-30.292683 17.663621-56.809448 42.43109-68.17987l360.589596-162.876505-441.953184 79.550293A75.753041 75.753041 0 0 0 0.01728 39.164413V739.90671C0.01728 773.996645 28.28334 796.716157 56.634732 792.940238z m441.867851-905.281907L190.946516 92.197942c-21.226211 15.146342-31.82865 37.865854-31.82865 64.382618V842.176515c0 41.663106 42.431089 68.17987 77.800997 45.439025l240.378842-159.079253c14.165029-11.34909 24.767469-26.516764 24.767469-45.439025v-795.438931h-3.562591zM1004.027736 792.940238c28.330059 3.775919 56.596119-18.943594 56.596118-53.033528v-700.742297a75.753041 75.753041 0 0 0-60.073377-75.753041l-441.974516-79.550293 360.610928 162.876505c26.132773 12.607729 42.665751 39.16716 42.409757 68.17987V739.90671c0 26.516764 17.72762 49.236277 42.43109 53.033528zM562.138551-112.341669L558.575961 683.075929c0 18.922261 10.623772 34.089935 24.788801 45.439025L823.722271 887.658206c35.391241 22.719512 77.800997-3.797252 77.800998-45.439025V156.58056c0-26.516764-10.602439-49.236277-31.807318-64.382618L562.138551-112.341669z"  horiz-adv-x="1066" />

    


  </font>
</defs>
</svg>
